<svg height="480pt" viewBox="0 0 480 480" width="480pt" xmlns="http://www.w3.org/2000/svg"><path d="m456 367.996094h-177.222656l-5.335938-32h26.78125c15.167969.050781 29.042969-8.523438 35.777344-22.113282l20.945312-41.886718h3.054688c13.253906 0 24-10.746094 24-24-.027344-2.734375-.523438-5.4375-1.472656-8h5.121094c6.820312.007812 12.347656 5.539062 12.351562 12.359375v67.640625h16v-67.640625c-.011719-15.65625-12.699219-28.34375-28.351562-28.359375h-116.871094l-5.371094-32.21875c12.726562-1.03125 23.605469-9.554688 27.648438-21.664063l8.714843-26.117187h10.230469c13.253906 0 24-10.746094 24-24-.027344-2.734375-.523438-5.4375-1.472656-8h5.121094c6.820312.007812 12.347656 5.539062 12.351562 12.359375v51.640625h16v-51.640625c-.011719-15.65625-12.699219-28.34375-28.351562-28.359375h-72c2.832031-14.667969-4.476563-29.425782-17.863282-36.058594l-1.785156-.886719v-19.054687c0-13.257813 10.746094-24 24-24s24 10.742187 24 24v8h16v-8c.050781-17.253906-11-32.582032-27.386719-37.988282-16.382812-5.40625-34.386719.339844-44.613281 14.234376-10.226562-13.894532-28.230469-19.640626-44.613281-14.234376-16.386719 5.40625-27.4375 20.734376-27.386719 37.988282v8h16v-8c0-13.257813 10.746094-24 24-24s24 10.742187 24 24v19.054687l-1.777344.886719c-13.386718 6.632812-20.695312 21.390625-17.863281 36.058594h-72c-15.65625.015625-28.339844 12.703125-28.359375 28.359375v51.640625h16v-51.640625c.007812-6.824219 5.539062-12.351563 12.359375-12.359375h5.113281c-.949218 2.5625-1.445312 5.265625-1.472656 8 0 13.253906 10.746094 24 24 24h10.230469l8.714843 26.117187c4.042969 12.109375 14.921876 20.632813 27.648438 21.664063l-5.371094 32.21875h-116.863281c-15.65625.015625-28.339844 12.703125-28.359375 28.359375v67.640625h16v-67.640625c.007812-6.824219 5.539062-12.351563 12.359375-12.359375h5.113281c-.949218 2.5625-1.445312 5.265625-1.472656 8 0 13.253906 10.746094 24 24 24h3.054688l20.945312 41.886718c6.734375 13.589844 20.609375 22.164063 35.777344 22.113282h26.78125l-5.335938 32h-177.222656c-13.253906 0-24 10.742187-24 24 0 13.253906 10.746094 24 24 24h3.054688l20.945312 41.886718c6.734375 13.589844 20.609375 22.164063 35.777344 22.113282h312.445312c15.167969.050781 29.042969-8.523438 35.777344-22.113282l20.945312-41.886718h3.054688c13.253906 0 24-10.746094 24-24 0-13.257813-10.746094-24-24-24zm-247.0625-96 6 48h-16.867188c-4.476562-16.453125-10.308593-32.507813-17.429687-48zm22.125 48-6-48h29.875l-6 48zm34 0 6-48h28.296875c-7.125 15.492187-12.953125 31.546875-17.429687 48zm56.625-13.265625c-4.039062 8.152343-12.363281 13.296875-21.464844 13.265625h-1.6875c4.738282-16.511719 10.921875-32.574219 18.472656-48h22.046876zm-90.007812-130.734375c-.542969-10.8125-2.214844-21.539063-4.992188-32h26.625c-2.777344 10.460937-4.449219 21.1875-4.992188 32zm46.199218-10.9375c-2.011718 5.921875-7.320312 10.105468-13.550781 10.679687.632813-10.761719 2.511719-21.414062 5.601563-31.742187h14.941406zm-49.597656-79.671875c1.28125-4.839844 4.582031-8.898438 9.0625-11.136719l2.65625-1.3125 2.625 1.3125c8 3.988281 11.699219 13.371094 8.574219 21.746094h-22.398438c-1.261719-3.402344-1.433593-7.109375-.488281-10.609375zm-68.28125 34.609375c0-4.417969 3.582031-8 8-8h144c4.417969 0 8 3.582031 8 8 0 4.417968-3.582031 8-8 8h-144c-4.417969 0-8-3.582032-8-8zm42.121094 45.054687-7.015625-21.054687h14.941406c3.085937 10.328125 4.96875 20.980468 5.601563 31.742187-6.222657-.582031-11.519532-4.769531-13.527344-10.6875zm28.65625 26.945313h18.445312l5.328125 32h-29.101562zm-118.777344 56c0-4.417969 3.582031-8 8-8h240c4.417969 0 8 3.582031 8 8 0 4.417968-3.582031 8-8 8h-240c-4.417969 0-8-3.582032-8-8zm46.3125 58.734375-17.367188-34.734375h22.046876c7.550781 15.425781 13.734374 31.488281 18.472656 48h-1.6875c-9.101563.03125-17.425782-5.113282-21.464844-13.265625zm64.464844 29.265625h34.445312l5.328125 32h-45.101562zm-160.464844 114.734375-17.367188-34.734375h22.007813l22.910156 48h-6.085937c-9.101563.03125-17.425782-5.113282-21.464844-13.265625zm333.007812-34.734375-22.90625 48h-24.324218l17.183594-48zm-64.222656 48h-24.960937l11.464843-48h30.695313zm-41.410156 0h-24.625l6-48h30.074219zm-40.75 0h-17.875l-6-48h29.875zm-40-48 6 48h-24.625l-11.449219-48zm-46.539062 0 11.449218 48h-24.960937l-17.183594-48zm-47.6875 0 17.183593 48h-24.308593l-22.90625-48zm302.960937 34.734375c-4.035156 8.148437-12.355469 13.292969-21.449219 13.265625h-6.085937l22.910156-48h22.007813zm38.328125-50.734375h-432c-4.417969 0-8-3.582032-8-8 0-4.417969 3.582031-8 8-8h432c4.417969 0 8 3.582031 8 8 0 4.417968-3.582031 8-8 8zm0 0"/><path d="m168 63.996094h16v16h-16zm0 0"/><path d="m112 191.996094h16v16h-16zm0 0"/><path d="m64 335.996094h16v16h-16zm0 0"/><path d="m296 63.996094h16v16h-16zm0 0"/><path d="m352 191.996094h16v16h-16zm0 0"/><path d="m400 335.996094h16v16h-16zm0 0"/></svg>