<?xml version="1.0" encoding="iso-8859-1"?>
<!-- Generator: Adobe Illustrator 19.0.0, SVG Export Plug-In . SVG Version: 6.00 Build 0)  -->
<svg xmlns="http://www.w3.org/2000/svg" xmlns:xlink="http://www.w3.org/1999/xlink" version="1.1" id="Layer_1" x="0px" y="0px" viewBox="0 0 512 512" style="enable-background:new 0 0 512 512;" xml:space="preserve" width="512" height="512">
<g>
	<path d="M490.155,380.757l19.055-19.828c3.827-3.982,3.701-10.313-0.281-14.139c-3.982-3.827-10.313-3.701-14.139,0.281   l-16.959,17.647c-5.211-5.821-10.918-11.19-17.062-16.029l14.335-19.83c3.236-4.476,2.23-10.727-2.246-13.962   c-4.477-3.236-10.728-2.231-13.962,2.246l-14.726,20.371c-6.481-3.696-13.296-6.868-20.392-9.456l6.848-24.349   c1.495-5.316-1.603-10.839-6.919-12.334c-5.317-1.498-10.838,1.602-12.334,6.919l-6.848,24.349   c-6.039-1.218-12.225-2.023-18.525-2.396V120h10c4.347,0,8.196-2.809,9.523-6.948s-0.173-8.662-3.71-11.189l-140-100   c-3.478-2.483-8.147-2.483-11.625,0l-140,100c-3.537,2.527-5.037,7.049-3.71,11.189S111.653,120,116,120h10v69.588L3.259,301.614   C1.183,303.509,0,306.189,0,309v55c0,3.962,2.339,7.55,5.963,9.149c0.012,0.005,0.025,0.009,0.037,0.014v63.949l-2.741,2.502   C1.183,441.509,0,444.189,0,447v55c0,3.962,2.339,7.55,5.963,9.149C7.26,511.721,8.634,512,9.998,512   c2.448,0,4.864-0.899,6.743-2.614L126,409.666V502c0,5.523,4.477,10,10,10h40c5.523,0,10-4.477,10-10V380h140v122   c0,5.523,4.477,10,10,10h40c5.523,0,10-4.477,10-10V381.252c37.457,6.642,66,39.414,66,78.748v42c0,5.523,4.477,10,10,10h40   c5.523,0,10-4.477,10-10v-48C512,426.988,503.958,401.823,490.155,380.757z M146,260h20v30c0,5.523,4.477,10,10,10h160   c5.523,0,10-4.477,10-10v-30h20v60H146V260z M166,240h-20v-20h20V240z M186,280V180h140v100H186z M346,220h20v20h-20V220z    M256,22.289L364.795,100H147.205L256,22.289z M146,120h220v80h-20v-30c0-5.523-4.477-10-10-10H176c-5.523,0-10,4.477-10,10v30h-20   V120z M20,313.412l106-96.746v27.922l-76.629,69.94c-0.152,0.135-0.307,0.267-0.451,0.411L20,341.334V313.412z M86,308.174v55.922   L66,382.35v-55.922L86,308.174z M46,344.682v55.922l-20,18.254v-55.922L46,344.682z M126,382.588L20,479.334v-27.922l106-96.746   V382.588z M126,327.588l-20,18.254V289.92l20-18.254V327.588z M166,492h-20V380h20V492z M366,492h-20V380h20V492z M492,492h-20v-32   c0-53.185-41.736-96.799-94.176-99.826C377.232,360.065,146,360,146,360v-20h232c62.86,0,114,51.14,114,114V492z"/>
	<path d="M256,200c-16.542,0-30,13.458-30,30s13.458,30,30,30s30-13.458,30-30S272.542,200,256,200z M256,240   c-5.514,0-10-4.486-10-10s4.486-10,10-10s10,4.486,10,10S261.514,240,256,240z"/>
</g>















</svg>
