<svg height="480pt" viewBox="0 -48 480.06068 480" width="480pt" xmlns="http://www.w3.org/2000/svg"><path d="m408.03125.03125h-336c-22.304688-.1171875-40.933594 16.96875-42.746094 39.199219l-29.253906 336.105469c-.195312 2.238281.558594 4.457031 2.082031 6.113281 1.519531 1.652343 3.667969 2.589843 5.917969 2.582031h32c4.167969.015625 7.648438-3.175781 8-7.328125l27.589844-328.671875h12.410156v8c.042969 10.132812 6.445312 19.148438 16 22.527344v213.601562c0 2.121094.84375 4.15625 2.34375 5.65625 29.660156 29.566406 77.652344 29.566406 107.3125 0 1.5-1.503906 2.34375-3.542968 2.34375-5.664062v-213.601563c9.550781-3.375 15.953125-12.386719 16-22.519531v-8h16v8c.042969 10.132812 6.445312 19.148438 16 22.527344v213.601562c0 2.121094.84375 4.15625 2.34375 5.65625 29.660156 29.566406 77.652344 29.566406 107.3125 0 1.5-1.503906 2.34375-3.542968 2.34375-5.664062v-213.601563c9.550781-3.375 15.953125-12.386719 16-22.519531v-8h12.40625l27.59375 328.671875c.347656 4.152344 3.832031 7.34375 8 7.328125h32c2.246094.007812 4.394531-.929688 5.917969-2.582031 1.519531-1.65625 2.277343-3.875 2.082031-6.113281l-29.257812-336.105469c-1.808594-22.230469-20.4375-39.3164065-42.742188-39.199219zm-224 48v8c.042969 10.132812 6.445312 19.148438 16 22.527344v154.046875c-22.753906 20.433593-57.25 20.433593-80 0v-154.046875c9.554688-3.378906 15.957031-12.394532 16-22.527344v-8zm-64 8c0 4.417969-3.582031 8-8 8s-8-3.582031-8-8v-8h16zm80 232.679688c-22.769531 20.394531-57.234375 20.394531-80 0v-36.070313c24.515625 15.144531 55.484375 15.144531 80 0zm16-232.679688c0 4.417969-3.582031 8-8 8s-8-3.582031-8-8v-8h16zm128-8v8c.042969 10.132812 6.445312 19.148438 16 22.527344v154.046875c-22.753906 20.433593-57.25 20.433593-80 0v-154.046875c9.554688-3.378906 15.957031-12.394532 16-22.527344v-8zm-64 8c0 4.417969-3.582031 8-8 8s-8-3.582031-8-8v-8h16zm80 232.679688c-22.769531 20.394531-57.234375 20.394531-80 0v-36.070313c24.515625 15.144531 55.484375 15.144531 80 0zm16-232.679688c0 4.417969-3.582031 8-8 8s-8-3.582031-8-8v-8h16zm71.351562 312-27.617187-328.671875c-.347656-4.15625-3.832031-7.34375-8-7.328125h-343.503906c-4.167969-.015625-7.648438 3.171875-8 7.328125l-27.582031 328.671875h-15.921876l28.464844-327.425781c1.140625-13.9375 12.824219-24.644531 26.808594-24.574219h336c13.984375-.070312 25.664062 10.636719 26.808594 24.574219l28.460937 327.425781zm0 0"/></svg>